<mxfile host="Electron" agent="Mozilla/5.0 (Windows NT 10.0; Win64; x64) AppleWebKit/537.36 (KHTML, like Gecko) draw.io/28.1.2 Chrome/138.0.7204.243 Electron/37.4.0 Safari/537.36" version="28.1.2">
  <diagram name="PÃ¡gina-1" id="ZNWqzE_T4n_VEFWBTLKL">
    <mxGraphModel dx="6718" dy="1201" grid="1" gridSize="10" guides="1" tooltips="1" connect="1" arrows="1" fold="1" page="1" pageScale="1" pageWidth="4681" pageHeight="3300" math="0" shadow="0">
      <root>
        <mxCell id="0" />
        <mxCell id="1" parent="0" />
        <mxCell id="boz6aY3w5AmEwjTnb0iO-65" value="" style="edgeStyle=orthogonalEdgeStyle;rounded=0;orthogonalLoop=1;jettySize=auto;html=1;" edge="1" parent="1" source="boz6aY3w5AmEwjTnb0iO-14" target="boz6aY3w5AmEwjTnb0iO-64">
          <mxGeometry relative="1" as="geometry" />
        </mxCell>
        <mxCell id="boz6aY3w5AmEwjTnb0iO-80" style="edgeStyle=orthogonalEdgeStyle;rounded=0;orthogonalLoop=1;jettySize=auto;html=1;entryX=0.5;entryY=0;entryDx=0;entryDy=0;" edge="1" parent="1" source="boz6aY3w5AmEwjTnb0iO-14" target="boz6aY3w5AmEwjTnb0iO-79">
          <mxGeometry relative="1" as="geometry" />
        </mxCell>
        <mxCell id="boz6aY3w5AmEwjTnb0iO-14" value="Cursos" style="rounded=1;arcSize=10;whiteSpace=wrap;html=1;align=center;" vertex="1" parent="1">
          <mxGeometry x="200" y="840" width="100" height="40" as="geometry" />
        </mxCell>
        <mxCell id="boz6aY3w5AmEwjTnb0iO-70" style="edgeStyle=orthogonalEdgeStyle;rounded=0;orthogonalLoop=1;jettySize=auto;html=1;entryX=0.5;entryY=0;entryDx=0;entryDy=0;" edge="1" parent="1" source="boz6aY3w5AmEwjTnb0iO-15" target="boz6aY3w5AmEwjTnb0iO-69">
          <mxGeometry relative="1" as="geometry" />
        </mxCell>
        <mxCell id="boz6aY3w5AmEwjTnb0iO-15" value="Instrutores" style="rounded=1;arcSize=10;whiteSpace=wrap;html=1;align=center;" vertex="1" parent="1">
          <mxGeometry x="490" y="848" width="100" height="40" as="geometry" />
        </mxCell>
        <mxCell id="boz6aY3w5AmEwjTnb0iO-29" value="" style="edgeStyle=orthogonalEdgeStyle;rounded=0;orthogonalLoop=1;jettySize=auto;html=1;" edge="1" parent="1" source="boz6aY3w5AmEwjTnb0iO-18" target="boz6aY3w5AmEwjTnb0iO-28">
          <mxGeometry relative="1" as="geometry" />
        </mxCell>
        <mxCell id="boz6aY3w5AmEwjTnb0iO-32" value="" style="edgeStyle=orthogonalEdgeStyle;rounded=0;orthogonalLoop=1;jettySize=auto;html=1;" edge="1" parent="1" source="boz6aY3w5AmEwjTnb0iO-18" target="boz6aY3w5AmEwjTnb0iO-31">
          <mxGeometry relative="1" as="geometry" />
        </mxCell>
        <mxCell id="boz6aY3w5AmEwjTnb0iO-18" value="Alunos" style="rounded=1;arcSize=10;whiteSpace=wrap;html=1;align=center;" vertex="1" parent="1">
          <mxGeometry x="-100" y="420" width="100" height="40" as="geometry" />
        </mxCell>
        <mxCell id="boz6aY3w5AmEwjTnb0iO-38" value="" style="edgeStyle=orthogonalEdgeStyle;rounded=0;orthogonalLoop=1;jettySize=auto;html=1;" edge="1" parent="1" source="boz6aY3w5AmEwjTnb0iO-19" target="boz6aY3w5AmEwjTnb0iO-37">
          <mxGeometry relative="1" as="geometry" />
        </mxCell>
        <mxCell id="boz6aY3w5AmEwjTnb0iO-19" value="Matricula" style="rounded=1;arcSize=10;whiteSpace=wrap;html=1;align=center;" vertex="1" parent="1">
          <mxGeometry x="-100" y="720" width="100" height="40" as="geometry" />
        </mxCell>
        <mxCell id="boz6aY3w5AmEwjTnb0iO-76" style="edgeStyle=orthogonalEdgeStyle;rounded=0;orthogonalLoop=1;jettySize=auto;html=1;entryX=0.5;entryY=0;entryDx=0;entryDy=0;" edge="1" parent="1" source="boz6aY3w5AmEwjTnb0iO-26" target="boz6aY3w5AmEwjTnb0iO-75">
          <mxGeometry relative="1" as="geometry" />
        </mxCell>
        <mxCell id="boz6aY3w5AmEwjTnb0iO-26" value="Unidades" style="rounded=1;arcSize=10;whiteSpace=wrap;html=1;align=center;" vertex="1" parent="1">
          <mxGeometry x="-230" y="860" width="100" height="40" as="geometry" />
        </mxCell>
        <mxCell id="boz6aY3w5AmEwjTnb0iO-30" style="edgeStyle=orthogonalEdgeStyle;rounded=0;orthogonalLoop=1;jettySize=auto;html=1;" edge="1" parent="1" source="boz6aY3w5AmEwjTnb0iO-28" target="boz6aY3w5AmEwjTnb0iO-19">
          <mxGeometry relative="1" as="geometry" />
        </mxCell>
        <mxCell id="boz6aY3w5AmEwjTnb0iO-28" value="Faz" style="rhombus;whiteSpace=wrap;html=1;rounded=1;arcSize=10;" vertex="1" parent="1">
          <mxGeometry x="-82.5" y="578" width="65" height="60" as="geometry" />
        </mxCell>
        <mxCell id="boz6aY3w5AmEwjTnb0iO-33" style="edgeStyle=orthogonalEdgeStyle;rounded=0;orthogonalLoop=1;jettySize=auto;html=1;entryX=0;entryY=0.5;entryDx=0;entryDy=0;" edge="1" parent="1" source="boz6aY3w5AmEwjTnb0iO-31" target="boz6aY3w5AmEwjTnb0iO-22">
          <mxGeometry relative="1" as="geometry" />
        </mxCell>
        <mxCell id="boz6aY3w5AmEwjTnb0iO-31" value="Registra" style="rhombus;whiteSpace=wrap;html=1;rounded=1;arcSize=10;" vertex="1" parent="1">
          <mxGeometry x="100" y="400" width="80" height="80" as="geometry" />
        </mxCell>
        <mxCell id="boz6aY3w5AmEwjTnb0iO-39" style="edgeStyle=orthogonalEdgeStyle;rounded=0;orthogonalLoop=1;jettySize=auto;html=1;entryX=0.5;entryY=0;entryDx=0;entryDy=0;" edge="1" parent="1" source="boz6aY3w5AmEwjTnb0iO-37" target="boz6aY3w5AmEwjTnb0iO-14">
          <mxGeometry relative="1" as="geometry" />
        </mxCell>
        <mxCell id="boz6aY3w5AmEwjTnb0iO-37" value="Seleciona" style="rhombus;whiteSpace=wrap;html=1;rounded=1;arcSize=10;" vertex="1" parent="1">
          <mxGeometry x="215" y="710" width="70" height="60" as="geometry" />
        </mxCell>
        <mxCell id="boz6aY3w5AmEwjTnb0iO-43" value="1:N" style="text;html=1;align=center;verticalAlign=middle;resizable=0;points=[];autosize=1;strokeColor=none;fillColor=none;" vertex="1" parent="1">
          <mxGeometry x="330" y="980" width="40" height="30" as="geometry" />
        </mxCell>
        <mxCell id="boz6aY3w5AmEwjTnb0iO-44" value="1:N" style="text;html=1;align=center;verticalAlign=middle;resizable=0;points=[];autosize=1;strokeColor=none;fillColor=none;" vertex="1" parent="1">
          <mxGeometry x="460" y="980" width="40" height="30" as="geometry" />
        </mxCell>
        <mxCell id="boz6aY3w5AmEwjTnb0iO-45" value="0:N" style="text;html=1;align=center;verticalAlign=middle;resizable=0;points=[];autosize=1;strokeColor=none;fillColor=none;" vertex="1" parent="1">
          <mxGeometry x="-80" y="1060" width="40" height="30" as="geometry" />
        </mxCell>
        <mxCell id="boz6aY3w5AmEwjTnb0iO-46" value="1:N" style="text;html=1;align=center;verticalAlign=middle;resizable=0;points=[];autosize=1;strokeColor=none;fillColor=none;" vertex="1" parent="1">
          <mxGeometry x="70" y="1060" width="40" height="30" as="geometry" />
        </mxCell>
        <mxCell id="boz6aY3w5AmEwjTnb0iO-47" value="1:1" style="text;html=1;align=center;verticalAlign=middle;resizable=0;points=[];autosize=1;strokeColor=none;fillColor=none;" vertex="1" parent="1">
          <mxGeometry y="740" width="40" height="30" as="geometry" />
        </mxCell>
        <mxCell id="boz6aY3w5AmEwjTnb0iO-48" value="1:N" style="text;html=1;align=center;verticalAlign=middle;resizable=0;points=[];autosize=1;strokeColor=none;fillColor=none;" vertex="1" parent="1">
          <mxGeometry x="255" y="810" width="40" height="30" as="geometry" />
        </mxCell>
        <mxCell id="boz6aY3w5AmEwjTnb0iO-49" value="1:N" style="text;html=1;align=center;verticalAlign=middle;resizable=0;points=[];autosize=1;strokeColor=none;fillColor=none;" vertex="1" parent="1">
          <mxGeometry x="-50" y="460" width="40" height="30" as="geometry" />
        </mxCell>
        <mxCell id="boz6aY3w5AmEwjTnb0iO-50" value="1:1" style="text;html=1;align=center;verticalAlign=middle;resizable=0;points=[];autosize=1;strokeColor=none;fillColor=none;" vertex="1" parent="1">
          <mxGeometry x="-40" y="690" width="40" height="30" as="geometry" />
        </mxCell>
        <mxCell id="boz6aY3w5AmEwjTnb0iO-51" value="1:N" style="text;html=1;align=center;verticalAlign=middle;resizable=0;points=[];autosize=1;strokeColor=none;fillColor=none;" vertex="1" parent="1">
          <mxGeometry y="420" width="40" height="30" as="geometry" />
        </mxCell>
        <mxCell id="boz6aY3w5AmEwjTnb0iO-52" value="1:1" style="text;html=1;align=center;verticalAlign=middle;resizable=0;points=[];autosize=1;strokeColor=none;fillColor=none;" vertex="1" parent="1">
          <mxGeometry x="250" y="420" width="40" height="30" as="geometry" />
        </mxCell>
        <mxCell id="boz6aY3w5AmEwjTnb0iO-62" value="Curso_Instrutor" style="shape=ext;margin=3;double=1;whiteSpace=wrap;html=1;align=center;" vertex="1" parent="1">
          <mxGeometry x="365" y="960" width="100" height="40" as="geometry" />
        </mxCell>
        <mxCell id="boz6aY3w5AmEwjTnb0iO-67" style="edgeStyle=orthogonalEdgeStyle;rounded=0;orthogonalLoop=1;jettySize=auto;html=1;entryX=0;entryY=0.5;entryDx=0;entryDy=0;" edge="1" parent="1" source="boz6aY3w5AmEwjTnb0iO-64" target="boz6aY3w5AmEwjTnb0iO-62">
          <mxGeometry relative="1" as="geometry" />
        </mxCell>
        <mxCell id="boz6aY3w5AmEwjTnb0iO-64" value="Liga" style="rhombus;whiteSpace=wrap;html=1;rounded=1;arcSize=10;" vertex="1" parent="1">
          <mxGeometry x="310" y="888" width="30" height="40" as="geometry" />
        </mxCell>
        <mxCell id="boz6aY3w5AmEwjTnb0iO-71" style="edgeStyle=orthogonalEdgeStyle;rounded=0;orthogonalLoop=1;jettySize=auto;html=1;entryX=1;entryY=0.5;entryDx=0;entryDy=0;" edge="1" parent="1" source="boz6aY3w5AmEwjTnb0iO-69" target="boz6aY3w5AmEwjTnb0iO-62">
          <mxGeometry relative="1" as="geometry" />
        </mxCell>
        <mxCell id="boz6aY3w5AmEwjTnb0iO-69" value="Liga" style="rhombus;whiteSpace=wrap;html=1;rounded=1;arcSize=10;" vertex="1" parent="1">
          <mxGeometry x="465" y="888" width="30" height="40" as="geometry" />
        </mxCell>
        <mxCell id="boz6aY3w5AmEwjTnb0iO-72" value="Unidades_Cursos" style="shape=ext;margin=3;double=1;whiteSpace=wrap;html=1;align=center;" vertex="1" parent="1">
          <mxGeometry x="-40" y="1040" width="120" height="40" as="geometry" />
        </mxCell>
        <mxCell id="boz6aY3w5AmEwjTnb0iO-77" style="edgeStyle=orthogonalEdgeStyle;rounded=0;orthogonalLoop=1;jettySize=auto;html=1;entryX=0;entryY=0.5;entryDx=0;entryDy=0;" edge="1" parent="1" source="boz6aY3w5AmEwjTnb0iO-75" target="boz6aY3w5AmEwjTnb0iO-72">
          <mxGeometry relative="1" as="geometry" />
        </mxCell>
        <mxCell id="boz6aY3w5AmEwjTnb0iO-75" value="Liga" style="rhombus;whiteSpace=wrap;html=1;rounded=1;arcSize=10;" vertex="1" parent="1">
          <mxGeometry x="-90" y="928" width="30" height="40" as="geometry" />
        </mxCell>
        <mxCell id="boz6aY3w5AmEwjTnb0iO-81" style="edgeStyle=orthogonalEdgeStyle;rounded=0;orthogonalLoop=1;jettySize=auto;html=1;entryX=1;entryY=0.5;entryDx=0;entryDy=0;" edge="1" parent="1" source="boz6aY3w5AmEwjTnb0iO-79" target="boz6aY3w5AmEwjTnb0iO-72">
          <mxGeometry relative="1" as="geometry" />
        </mxCell>
        <mxCell id="boz6aY3w5AmEwjTnb0iO-79" value="Liga" style="rhombus;whiteSpace=wrap;html=1;rounded=1;arcSize=10;" vertex="1" parent="1">
          <mxGeometry x="130" y="900" width="30" height="40" as="geometry" />
        </mxCell>
        <mxCell id="boz6aY3w5AmEwjTnb0iO-143" value="" style="shape=tableRow;horizontal=0;startSize=0;swimlaneHead=0;swimlaneBody=0;fillColor=none;collapsible=0;dropTarget=0;points=[[0,0.5],[1,0.5]];portConstraint=eastwest;top=0;left=0;right=0;bottom=0;" vertex="1" parent="1">
          <mxGeometry x="110" y="198.5" width="180" height="30" as="geometry" />
        </mxCell>
        <mxCell id="boz6aY3w5AmEwjTnb0iO-144" value="" style="shape=partialRectangle;connectable=0;fillColor=none;top=0;left=0;bottom=0;right=0;editable=1;overflow=hidden;whiteSpace=wrap;html=1;" vertex="1" parent="boz6aY3w5AmEwjTnb0iO-143">
          <mxGeometry width="30" height="30" as="geometry">
            <mxRectangle width="30" height="30" as="alternateBounds" />
          </mxGeometry>
        </mxCell>
        <mxCell id="boz6aY3w5AmEwjTnb0iO-158" style="edgeStyle=orthogonalEdgeStyle;rounded=0;orthogonalLoop=1;jettySize=auto;html=1;entryX=0;entryY=0.5;entryDx=0;entryDy=0;" edge="1" parent="1" source="boz6aY3w5AmEwjTnb0iO-147" target="boz6aY3w5AmEwjTnb0iO-18">
          <mxGeometry relative="1" as="geometry" />
        </mxCell>
        <mxCell id="boz6aY3w5AmEwjTnb0iO-159" style="edgeStyle=orthogonalEdgeStyle;rounded=0;orthogonalLoop=1;jettySize=auto;html=1;entryX=1;entryY=0.5;entryDx=0;entryDy=0;" edge="1" parent="1" source="boz6aY3w5AmEwjTnb0iO-147" target="boz6aY3w5AmEwjTnb0iO-15">
          <mxGeometry relative="1" as="geometry" />
        </mxCell>
        <mxCell id="boz6aY3w5AmEwjTnb0iO-147" value="{Disjunta,Total}" style="shape=rhombus;perimeter=rhombusPerimeter;whiteSpace=wrap;html=1;align=center;" vertex="1" parent="1">
          <mxGeometry x="130" y="269" width="120" height="60" as="geometry" />
        </mxCell>
        <mxCell id="boz6aY3w5AmEwjTnb0iO-156" style="edgeStyle=orthogonalEdgeStyle;rounded=0;orthogonalLoop=1;jettySize=auto;html=1;entryX=0.5;entryY=0;entryDx=0;entryDy=0;" edge="1" parent="1" source="boz6aY3w5AmEwjTnb0iO-154" target="boz6aY3w5AmEwjTnb0iO-147">
          <mxGeometry relative="1" as="geometry" />
        </mxCell>
        <mxCell id="boz6aY3w5AmEwjTnb0iO-154" value="Pessoa" style="swimlane;childLayout=stackLayout;horizontal=1;startSize=50;horizontalStack=0;rounded=1;fontSize=14;fontStyle=0;strokeWidth=2;resizeParent=0;resizeLast=1;shadow=0;dashed=0;align=center;arcSize=4;whiteSpace=wrap;html=1;" vertex="1" parent="1">
          <mxGeometry x="110" y="57" width="160" height="120" as="geometry" />
        </mxCell>
        <mxCell id="boz6aY3w5AmEwjTnb0iO-155" value="Nome&lt;div&gt;Rua&lt;/div&gt;&lt;div&gt;NÃºmero&lt;/div&gt;&lt;div&gt;Cidade&lt;/div&gt;&lt;div&gt;&lt;br&gt;&lt;/div&gt;" style="align=left;strokeColor=none;fillColor=none;spacingLeft=4;spacingRight=4;fontSize=12;verticalAlign=top;resizable=0;rotatable=0;part=1;html=1;whiteSpace=wrap;" vertex="1" parent="boz6aY3w5AmEwjTnb0iO-154">
          <mxGeometry y="50" width="160" height="70" as="geometry" />
        </mxCell>
        <mxCell id="boz6aY3w5AmEwjTnb0iO-160" value="" style="edgeStyle=orthogonalEdgeStyle;rounded=0;orthogonalLoop=1;jettySize=auto;html=1;entryX=0;entryY=0.5;entryDx=0;entryDy=0;" edge="1" parent="1" source="boz6aY3w5AmEwjTnb0iO-31" target="boz6aY3w5AmEwjTnb0iO-22">
          <mxGeometry relative="1" as="geometry">
            <mxPoint x="180" y="440" as="sourcePoint" />
            <mxPoint x="495" y="560" as="targetPoint" />
          </mxGeometry>
        </mxCell>
        <mxCell id="boz6aY3w5AmEwjTnb0iO-22" value="Telefone" style="rounded=1;arcSize=10;whiteSpace=wrap;html=1;align=center;" vertex="1" parent="1">
          <mxGeometry x="290" y="420" width="100" height="40" as="geometry" />
        </mxCell>
      </root>
    </mxGraphModel>
  </diagram>
</mxfile>
